<?xml version="1.0" encoding="utf-8"?>
<!-- Generator: Adobe Illustrator 22.0.1, SVG Export Plug-In . SVG Version: 6.00 Build 0)  -->
<svg version="1.1" id="레이어_1" xmlns="http://www.w3.org/2000/svg" xmlns:xlink="http://www.w3.org/1999/xlink" x="0px"
	 y="0px" viewBox="0 0 20 20" style="enable-background:new 0 0 20 20;" xml:space="preserve">
<style type="text/css">
	.st0{fill:#999999;}
</style>
<path class="st0" d="M3,10c0-3.9,3.1-7,7-7s7,3.1,7,7s-3.1,7-7,7S3,13.9,3,10z M9.6,3.9C9,4.1,8.4,4.7,7.9,5.6
	C7.8,5.9,7.6,6.2,7.5,6.5h2.1L9.6,3.9L9.6,3.9z M6.6,6.5C6.7,6,6.9,5.6,7.1,5.2c0.2-0.3,0.3-0.6,0.5-0.8C6.6,4.8,5.6,5.5,5,6.5H6.6
	L6.6,6.5z M6.1,9.6c0-0.8,0.1-1.5,0.3-2.2H4.5C4.1,8.1,3.9,8.8,3.9,9.6H6.1L6.1,9.6z M7.2,7.4C7.1,8.1,7,8.8,6.9,9.6h2.6V7.4
	L7.2,7.4L7.2,7.4z M10.4,7.4v2.2h2.6c0-0.7-0.1-1.5-0.3-2.2H10.4L10.4,7.4z M6.9,10.4c0,0.7,0.1,1.5,0.3,2.2h2.3v-2.2L6.9,10.4
	L6.9,10.4z M10.4,10.4v2.2h2.3c0.2-0.7,0.3-1.4,0.3-2.2L10.4,10.4L10.4,10.4z M7.5,13.5c0.1,0.3,0.3,0.7,0.4,0.9
	c0.5,0.9,1.1,1.4,1.7,1.6v-2.6H7.5z M7.7,15.7c-0.2-0.3-0.4-0.5-0.5-0.8c-0.2-0.4-0.4-0.9-0.6-1.3H5C5.6,14.5,6.6,15.2,7.7,15.7
	L7.7,15.7z M6.3,12.6c-0.2-0.7-0.3-1.5-0.3-2.2H3.9c0.1,0.8,0.2,1.5,0.6,2.2C4.5,12.6,6.3,12.6,6.3,12.6z M12.3,15.7
	c1.1-0.4,2-1.2,2.7-2.2h-1.6c-0.1,0.5-0.3,0.9-0.6,1.3C12.7,15.1,12.5,15.4,12.3,15.7L12.3,15.7z M10.4,13.5v2.6
	c0.6-0.2,1.2-0.7,1.7-1.6c0.2-0.3,0.3-0.6,0.4-0.9H10.4L10.4,13.5z M13.7,12.6h1.9c0.3-0.7,0.5-1.4,0.6-2.2h-2.2
	C13.9,11.2,13.8,11.9,13.7,12.6L13.7,12.6z M16.1,9.6c-0.1-0.8-0.2-1.5-0.6-2.2h-1.9c0.2,0.7,0.2,1.4,0.3,2.2L16.1,9.6L16.1,9.6z
	 M12.9,5.2c0.2,0.4,0.4,0.9,0.6,1.3H15c-0.7-1-1.6-1.7-2.7-2.2C12.5,4.6,12.7,4.9,12.9,5.2z M12.5,6.5c-0.1-0.3-0.3-0.6-0.4-0.9
	c-0.5-0.9-1.1-1.4-1.6-1.6v2.6H12.5L12.5,6.5z"/>
</svg>
