<?xml version="1.0" encoding="UTF-8" standalone="no" ?>
<!DOCTYPE svg PUBLIC "-//W3C//DTD SVG 1.1//EN" "http://www.w3.org/Graphics/SVG/1.1/DTD/svg11.dtd">
<svg xmlns="http://www.w3.org/2000/svg" xmlns:xlink="http://www.w3.org/1999/xlink" version="1.1" width="500" height="500" viewBox="0 0 500 500" xml:space="preserve">
<desc>Created with Fabric.js 4.6.0</desc>
<defs>
</defs>
<g transform="matrix(21.59 0 0 21.59 250 250)" id="jBopUEY0d59TZXV37JpY1"  >
<g style="" vector-effect="non-scaling-stroke"   >
		<g transform="matrix(1 0 0 1 -1 -6.5)" id="GojO5udoI7okWaqai1IvH"  >
<path style="stroke: none; stroke-width: 1; stroke-dasharray: none; stroke-linecap: butt; stroke-dashoffset: 0; stroke-linejoin: miter; stroke-miterlimit: 4; fill: rgb(153,153,153); fill-rule: evenodd; opacity: 1;" vector-effect="non-scaling-stroke"  transform=" translate(-5.5, -0.5)" d="M 11 1 L 0 1 L 0 0 L 11 0 L 11 1 Z" stroke-linecap="round" />
</g>
		<g transform="matrix(1 0 0 1 -1 6.5)" id="p_GHSZaqvayBM3a5mZj-r"  >
<path style="stroke: none; stroke-width: 1; stroke-dasharray: none; stroke-linecap: butt; stroke-dashoffset: 0; stroke-linejoin: miter; stroke-miterlimit: 4; fill: rgb(153,153,153); fill-rule: evenodd; opacity: 1;" vector-effect="non-scaling-stroke"  transform=" translate(-5.5, -13.5)" d="M 11 14 L 0 14 L 0 13 L 11 13 L 11 14 Z" stroke-linecap="round" />
</g>
		<g transform="matrix(1 0 0 1 -6 0)" id="Y0t7mHBB24yr90G-uhkor"  >
<path style="stroke: none; stroke-width: 1; stroke-dasharray: none; stroke-linecap: butt; stroke-dashoffset: 0; stroke-linejoin: miter; stroke-miterlimit: 4; fill: rgb(153,153,153); fill-rule: evenodd; opacity: 1;" vector-effect="non-scaling-stroke"  transform=" translate(-0.5, -7)" d="M 0 14 L 0 0 L 1 4.68353e-8 L 0.999999 14 L 0 14 Z" stroke-linecap="round" />
</g>
		<g transform="matrix(1 0 0 1 4 -5.5)" id="G7skFBGULfhRjrfhtNhmJ"  >
<path style="stroke: none; stroke-width: 1; stroke-dasharray: none; stroke-linecap: butt; stroke-dashoffset: 0; stroke-linejoin: miter; stroke-miterlimit: 4; fill: rgb(153,153,153); fill-rule: evenodd; opacity: 1;" vector-effect="non-scaling-stroke"  transform=" translate(-10.5, -1.5)" d="M 10 3 L 10 0 L 11 0 L 11 3 L 10 3 Z" stroke-linecap="round" />
</g>
		<g transform="matrix(1 0 0 1 4 5.5)" id="tXQBW1jaVxqZBLDQGR4m0"  >
<path style="stroke: none; stroke-width: 1; stroke-dasharray: none; stroke-linecap: butt; stroke-dashoffset: 0; stroke-linejoin: miter; stroke-miterlimit: 4; fill: rgb(153,153,153); fill-rule: evenodd; opacity: 1;" vector-effect="non-scaling-stroke"  transform=" translate(-10.5, -12.5)" d="M 10 14 L 10 11 L 11 11 L 11 14 L 10 14 Z" stroke-linecap="round" />
</g>
		<g transform="matrix(1 0 0 1 2.5 0)" id="ZH4pcxLOdaG2LfPhLjYKw"  >
<path style="stroke: none; stroke-width: 1; stroke-dasharray: none; stroke-linecap: butt; stroke-dashoffset: 0; stroke-linejoin: miter; stroke-miterlimit: 4; fill: rgb(153,153,153); fill-rule: evenodd; opacity: 1;" vector-effect="non-scaling-stroke"  transform=" translate(-9, -7)" d="M 9.00015 3.79773 L 4.99909 6.99838 L 9.00015 10.199 L 9.00015 7.92551 L 13 7.92551 L 13 6.07761 L 9.00015 6.07761 L 9.00015 3.79773 Z" stroke-linecap="round" />
</g>
</g>
</g>
</svg>